<svg xmlns="http://www.w3.org/2000/svg" xml:space="preserve" width="149" height="30" style="enable-background:new 0 0 236.9 47.9" viewBox="0 0 236.9 47.9"><path fill="#1423DC" d="M66.7 8.7c4.9 0 9 3.8 9 8.3v29.1c0 .9.8 1.6 1.7 1.5h6.1c.9 0 1.7-.6 1.7-1.5V17c-.1-9.4-8.3-17-18.5-17H47.1c-.9 0-1.6.8-1.5 1.7V46c0 .9.6 1.7 1.5 1.7h6.5c.9 0 1.6-.8 1.5-1.7V8.7h11.6zm-53.3 0h25c.9 0 1.6-.6 1.7-1.5V1.5c0-.9-.8-1.5-1.6-1.5H13.2C6.2 0 .4 5.2.4 11.7v24.2c0 6.5 5.7 11.8 12.8 11.8h25.2c.9 0 1.6-.6 1.7-1.5v-5.7c0-.9-.8-1.5-1.7-1.5h-25a3.4 3.4 0 0 1-3.4-3.2v-6.7h15c.9 0 1.6-.6 1.7-1.5V22c0-.9-.8-1.5-1.7-1.5H10v-8.8c0-1.6 1.6-3 3.4-3zm223 22.5v-1.4c-.5-5.3-6-9.3-11.7-9.3h-14.6c-2.4-.1-4.3-2.1-4.2-4.5v-3.2c.1-2.4 2.1-4.3 4.5-4.2h19.9c.7 0 1.3-.4 1.6-1 .1-.2.1-.3.1-.5V1.5c0-.9-.8-1.6-1.7-1.5h-22.2c-6.5 0-11.8 4.9-11.8 10.9v6.8c0 6.5 4.9 11.7 10.9 11.7h15.5c2.4.1 4.2 2.1 4.1 4.5V35c-.1 2.4-2.1 4.3-4.5 4.2H198c-.7 0-1.3.4-1.6 1.1-.1.2-.1.3-.1.5v5.6c0 .9.8 1.6 1.7 1.5h26.7c6.5 0 11.7-4.9 11.7-10.9v-5.8zM158.7 0H138c-.9.1-1.6.8-1.5 1.7v28c0 .9.6 1.7 1.5 1.7h6.5c.9 0 1.6-.8 1.5-1.7v-21h11.7c4.9 0 9 3.7 9 8.3v15.3c0 4.6-4 6.7-9 6.7h-21.1v8.7h21.1c10.2 0 18.4-6 18.4-15.3V16.9c-.2-9.4-7.9-17-17.4-16.9z"/><path fill="#93C90E" d="M108.9 39c-4.9 0-9-3.7-9-8.3v-1.5H119c6.6 0 12-5 12-11.1V11c0-6-5.3-11-11.9-11h-16.6c-.9 0-1.9 0-2.8.2-5.3 1-9.1 5.6-9.2 10.9v4.2c0 .9.6 1.7 1.5 1.7h6.5c.9-.1 1.6-.8 1.5-1.7v-2.6c.1-2.2 2-4 4.2-3.9h13.1c2.2-.1 4.1 1.6 4.2 3.9v4.2c-.1 2.2-2 4-4.2 3.9H85.1v8.7h5.5V31c0 9.4 8.3 16.9 18.4 16.9h27.5v-8.7l-27.6-.2z" class="green"/><path fill="#1423DC" d="M191 30V14.1c0-.9-.6-1.7-1.5-1.7H183c-.9 0-1.6.8-1.5 1.7V46c0 .9.6 1.7 1.5 1.7h6.5c.9 0 1.6-.8 1.5-1.7V30zm0-26.4V1.7c0-.9-.6-1.7-1.5-1.7H183c-.9 0-1.6.8-1.5 1.7V7c0 .9.6 1.7 1.5 1.7h6.5c.9 0 1.6-.8 1.5-1.7V3.6z"/></svg>