<svg xmlns="http://www.w3.org/2000/svg" xmlns:xlink="http://www.w3.org/1999/xlink" width="697.076" height="144.098"><script/><defs><linearGradient id="a" x1="0" x2="1" y1="0" y2="0" gradientTransform="matrix(0 -40.51176 -40.51176 0 262.764 572.936)" gradientUnits="userSpaceOnUse" spreadMethod="pad"><stop offset="0" style="stop-opacity:1;stop-color:#007a50"/><stop offset=".6" style="stop-opacity:1;stop-color:#7fd2a4"/><stop offset="1" style="stop-opacity:1;stop-color:#00a770"/></linearGradient><linearGradient id="c" x1="0" x2="1" y1="0" y2="0" gradientTransform="matrix(.02911 0 0 -.02911 265.405 559.418)" gradientUnits="userSpaceOnUse" spreadMethod="pad"><stop offset="0" style="stop-opacity:1;stop-color:#f1471d"/><stop offset="1" style="stop-opacity:1;stop-color:#fab10b"/></linearGradient><linearGradient id="d" x1="0" x2="1" y1="0" y2="0" gradientTransform="matrix(0 24.65855 24.65855 0 268.94 545.534)" gradientUnits="userSpaceOnUse" spreadMethod="pad"><stop offset="0" style="stop-opacity:1;stop-color:#33b880"/><stop offset="1" style="stop-opacity:1;stop-color:#00a770"/></linearGradient><linearGradient id="e" x1="0" x2="1" y1="0" y2="0" gradientTransform="matrix(0 24.66481 24.66481 0 253.641 545.533)" gradientUnits="userSpaceOnUse" spreadMethod="pad"><stop offset="0" style="stop-opacity:1;stop-color:#33b880"/><stop offset="1" style="stop-opacity:1;stop-color:#00a770"/></linearGradient><linearGradient id="f" x1="0" x2="1" y1="0" y2="0" gradientTransform="matrix(0 24.65355 24.65355 0 258.407 545.536)" gradientUnits="userSpaceOnUse" spreadMethod="pad"><stop offset="0" style="stop-opacity:1;stop-color:#33b880"/><stop offset="1" style="stop-opacity:1;stop-color:#00a770"/></linearGradient><linearGradient id="g" x1="0" x2="1" y1="0" y2="0" gradientTransform="matrix(0 24.65422 24.65422 0 262.528 545.534)" gradientUnits="userSpaceOnUse" spreadMethod="pad"><stop offset="0" style="stop-opacity:1;stop-color:#33b880"/><stop offset="1" style="stop-opacity:1;stop-color:#00a770"/></linearGradient><linearGradient id="b" x1="0" x2="1" y1="0" y2="0" gradientTransform="matrix(0 -33.62283 -33.62283 0 46.87 199.675)" gradientUnits="userSpaceOnUse" spreadMethod="pad"><stop offset="0" style="stop-opacity:1;stop-color:#00965e"/><stop offset=".3" style="stop-opacity:1;stop-color:#8ac9ad"/><stop offset=".55" style="stop-opacity:1;stop-color:#00965e"/><stop offset=".835" style="stop-opacity:1;stop-color:#007749"/><stop offset="1" style="stop-opacity:1;stop-color:#009f70"/></linearGradient><linearGradient id="A" x1="0" x2="1" y1="0" y2="0" gradientTransform="matrix(0 30.28597 30.28597 0 50.359 31.943)" gradientUnits="userSpaceOnUse" spreadMethod="pad"><stop offset="0" style="stop-opacity:1;stop-color:#00a876"/><stop offset="1" style="stop-opacity:1;stop-color:#009357"/></linearGradient><linearGradient id="x" x1="0" x2="1" y1="0" y2="0" gradientTransform="matrix(0 30.29396 30.29396 0 45.294 31.951)" gradientUnits="userSpaceOnUse" spreadMethod="pad"><stop offset="0" style="stop-opacity:1;stop-color:#00a876"/><stop offset="1" style="stop-opacity:1;stop-color:#009357"/></linearGradient><linearGradient id="u" x1="0" x2="1" y1="0" y2="0" gradientTransform="matrix(0 30.32033 30.32033 0 39.432 31.946)" gradientUnits="userSpaceOnUse" spreadMethod="pad"><stop offset="0" style="stop-opacity:1;stop-color:#00a876"/><stop offset="1" style="stop-opacity:1;stop-color:#009357"/></linearGradient><linearGradient id="r" x1="0" x2="1" y1="0" y2="0" gradientTransform="matrix(0 30.3085 30.3085 0 58.243 31.951)" gradientUnits="userSpaceOnUse" spreadMethod="pad"><stop offset="0" style="stop-opacity:1;stop-color:#00a876"/><stop offset="1" style="stop-opacity:1;stop-color:#009357"/></linearGradient><linearGradient id="o" x1="0" x2="1" y1="0" y2="0" gradientTransform="matrix(0 -46.84683 -46.84683 0 50.736 76.2)" gradientUnits="userSpaceOnUse" spreadMethod="pad"><stop offset="0" style="stop-opacity:1;stop-color:#009357"/><stop offset=".3" style="stop-opacity:1;stop-color:#6acaab"/><stop offset=".55" style="stop-opacity:1;stop-color:#009357"/><stop offset=".835" style="stop-opacity:1;stop-color:#007544"/><stop offset="1" style="stop-opacity:1;stop-color:#009d6a"/></linearGradient><linearGradient id="l" x1="0" x2="1" y1="0" y2="0" gradientTransform="matrix(0 -41.69313 -41.69313 0 50.8 67.365)" gradientUnits="userSpaceOnUse" spreadMethod="pad"><stop offset="0" style="stop-opacity:1;stop-color:#007544"/><stop offset=".6" style="stop-opacity:1;stop-color:#6acaab"/><stop offset="1" style="stop-opacity:1;stop-color:#009357"/></linearGradient><linearGradient id="i" x1="0" x2="1" y1="0" y2="0" gradientTransform="matrix(0 29.9078 29.9078 0 426.682 31.674)" gradientUnits="userSpaceOnUse" spreadMethod="pad"><stop offset="0" style="stop-opacity:1;stop-color:#f6f7f7"/><stop offset=".3" style="stop-opacity:1;stop-color:#d1d8db"/><stop offset=".3" style="stop-opacity:1;stop-color:#d1d8db"/><stop offset="1" style="stop-opacity:1;stop-color:#f6f7f7"/></linearGradient><linearGradient xlink:href="#a" id="C" x1="0" x2="1" y1="0" y2="0" gradientTransform="matrix(0 -40.51176 -40.51176 0 262.764 572.936)" gradientUnits="userSpaceOnUse" spreadMethod="pad"/><linearGradient xlink:href="#b" id="D" x1="0" x2="1" y1="0" y2="0" gradientTransform="scale(48.05893) rotate(-90 8.8 3.334)" gradientUnits="userSpaceOnUse" spreadMethod="pad"/><linearGradient xlink:href="#c" id="E" x1="0" x2="1" y1="0" y2="0" gradientTransform="matrix(.02911 0 0 -.02911 265.405 559.418)" gradientUnits="userSpaceOnUse" spreadMethod="pad"/><linearGradient xlink:href="#d" id="F" x1="0" x2="1" y1="0" y2="0" gradientTransform="matrix(0 32.86394 32.86394 0 271.092 536.464)" gradientUnits="userSpaceOnUse" spreadMethod="pad"/><linearGradient xlink:href="#e" id="G" x1="0" x2="1" y1="0" y2="0" gradientTransform="matrix(0 32.87228 32.87228 0 250.702 536.462)" gradientUnits="userSpaceOnUse" spreadMethod="pad"/><linearGradient xlink:href="#f" id="H" x1="0" x2="1" y1="0" y2="0" gradientTransform="matrix(0 32.85727 32.85727 0 257.054 536.466)" gradientUnits="userSpaceOnUse" spreadMethod="pad"/><linearGradient xlink:href="#g" id="I" x1="0" x2="1" y1="0" y2="0" gradientTransform="matrix(0 32.85816 32.85816 0 262.546 536.463)" gradientUnits="userSpaceOnUse" spreadMethod="pad"/><clipPath id="B" clipPathUnits="userSpaceOnUse"><path d="M0 17.008h595.275v56.633H0V17.008z"/></clipPath><clipPath id="z" clipPathUnits="userSpaceOnUse"><path d="M-.009-.14h.187v.28H-.01v-.28z"/></clipPath><clipPath id="y" clipPathUnits="userSpaceOnUse"><path d="M51.455 35.282c-.043.544-.082.997-.109 1.598a31.198 31.198 0 0 0-1.887-2.336c-.757-.209-1.621-.197-2.409-.187-.292.005-.574.009-.834.002l-.124-.275a8.43 8.43 0 0 1 2.189-.761c-.615-.556-1.433-.981-2.018-1.371l-.119-.273c1.231.297 2.858.816 4.064 1.537.633-.028 1.226.008 1.655.092 0 0 .123.285.123.277-.075.279-.322.446-.396.839 1.135.883 1.954 1.688 2.9 2.633l.135.272c-.938-.639-2.077-1.525-3.17-2.047"/></clipPath><clipPath id="w" clipPathUnits="userSpaceOnUse"><path d="M.419-.257h.316v.514H.419v-.514z"/></clipPath><clipPath id="v" clipPathUnits="userSpaceOnUse"><path d="M43.771 52.288s-.837.076-2.213.032c-1.17-.054-2.908-.157-3.752-.406l-.128-.273c1.351-.058 3.193-.41 3.897-1.123 0 0-2.04-1.841-4.063-5.873 0 0 3.665 3.444 5.251 4.298 0 0 .834-2.769 1.413-4.159l.127.272c.162.893.554 3.314 1.237 4.795 0 0 .235.148 1.405.264 1.181.1 2.845.161 6.001-.391l.13.275c-.719.417-3.596 1.647-6.641 2.062h.102c.421 1.225.938 2.146.938 2.146-.64-.084-2.479-.946-3.704-1.919"/></clipPath><clipPath id="t" clipPathUnits="userSpaceOnUse"><path d="M.019-.15H.38v.3H.02v-.3z"/></clipPath><clipPath id="s" clipPathUnits="userSpaceOnUse"><path d="M37.156 43.232c-.212-1.982-.304-3.4-.017-4.983-.802-.228-1.507-.265-2.155-.538l-.12-.273c1.029-.631 1.868-1.119 3.032-1.661.62-1.341 1.27-2.243 2.307-3.27l.13.271c-.19.764-.43 1.389-.334 2.222 1.288-.374 2.402-.576 3.881-.62l.122.275c-1.301.504-2.599.901-3.648 1.89.331.916.712 1.637 1.329 2.546l.128.281c-1.111-.178-2.128-.577-3.086-.771-.758 1.34-1.058 3.166-1.444 4.911l-.125-.28z"/></clipPath><clipPath id="q" clipPathUnits="userSpaceOnUse"><path d="M.554-.26h.438v.52H.554v-.52z"/></clipPath><clipPath id="p" clipPathUnits="userSpaceOnUse"><path d="M53.332 61.735c1.084-.456 5.415-2.8 5.952-3.541-2.185-.294-6.461-1.409-8.764-2.521l-.134-.277c2.536.553 6.086.856 8.536.984-.917-1.337-1.516-1.983-2.912-3.496l-.129-.292c2.654 1.594 3.403 1.704 5.839 3.135.924-1.363 1.141-4.51 1.182-6.995.791 1.575 1.76 7.532 1.36 8.605 1.617 1.115 1.838 2.011 1.838 2.011-1.488-.127-2.303-.155-3.105-.413-1.9 1.174-6.252 2.705-9.532 3.077l-.131-.277z"/></clipPath><clipPath id="n" clipPathUnits="userSpaceOnUse"><path d="M.224-.405h.801v.81h-.8v-.81z"/></clipPath><clipPath id="m" clipPathUnits="userSpaceOnUse"><path d="M34.136 65.695c-.765 0-1.264-.647-1.384-1.554 0 0-.986-5.187-.986-16.187 0-11.012.986-18.216.986-18.216.094-.872.619-1.559 1.384-1.559h34.185c.762 0 1.374.611 1.386 1.559 0 0-.383 8.436-.383 16.685 0 8.238.383 17.718.383 17.718.021.843-.624 1.554-1.386 1.554H34.136z"/></clipPath><clipPath id="k" clipPathUnits="userSpaceOnUse"><path d="M.023-.474h.948v.948H.023v-.948z"/></clipPath><clipPath id="j" clipPathUnits="userSpaceOnUse"><path d="M70.548 26.897H31.053v39.496h39.495V26.897z"/></clipPath><clipPath id="h" clipPathUnits="userSpaceOnUse"><path d="M0-14.413h1v29.3H0v-29.3z"/></clipPath></defs><g style="stroke:#000;stroke-width:.00825336;stroke-miterlimit:4;stroke-opacity:1;stroke-dasharray:none"><g style="stroke:#000;stroke-width:.00825336;stroke-miterlimit:4;stroke-opacity:1;stroke-dasharray:none"><g clip-path="url(#h)" transform="matrix(1.25 0 0 -1.25 -941.975 280.447)"><path d="M0 31.674h595.275v29.909H0V31.674z" style="fill:url(#i);stroke:none"/></g><g clip-path="url(#j)" transform="matrix(1.25 0 0 -1.25 -941.975 280.447)"><g clip-path="url(#k)"><path d="M70.548 26.897H31.053v39.496h39.495V26.897z" style="fill:url(#l);stroke:none"/></g></g><g clip-path="url(#m)" transform="matrix(1.25 0 0 -1.25 -941.975 280.447)"><g clip-path="url(#n)"><path d="M34.136 65.695c-.765 0-1.264-.647-1.384-1.554 0 0-.986-5.187-.986-16.187 0-11.012.986-18.216.986-18.216.094-.872.619-1.559 1.384-1.559h34.185c.762 0 1.374.611 1.386 1.559 0 0-.383 8.436-.383 16.685 0 8.238.383 17.718.383 17.718.021.843-.624 1.554-1.386 1.554H34.136z" style="fill:url(#o);stroke:none"/></g></g><g clip-path="url(#p)" transform="matrix(1.25 0 0 -1.25 -941.975 280.447)"><g clip-path="url(#q)"><path d="M53.332 61.735c1.084-.456 5.415-2.8 5.952-3.541-2.185-.294-6.461-1.409-8.764-2.521l-.134-.277c2.536.553 6.086.856 8.536.984-.917-1.337-1.516-1.983-2.912-3.496l-.129-.292c2.654 1.594 3.403 1.704 5.839 3.135.924-1.363 1.141-4.51 1.182-6.995.791 1.575 1.76 7.532 1.36 8.605 1.617 1.115 1.838 2.011 1.838 2.011-1.488-.127-2.303-.155-3.105-.413-1.9 1.174-6.252 2.705-9.532 3.077l-.131-.277z" style="fill:url(#r);stroke:none"/></g></g><g clip-path="url(#s)" transform="matrix(1.25 0 0 -1.25 -941.975 280.447)"><g clip-path="url(#t)"><path d="M37.156 43.232c-.212-1.982-.304-3.4-.017-4.983-.802-.228-1.507-.265-2.155-.538l-.12-.273c1.029-.631 1.868-1.119 3.032-1.661.62-1.341 1.27-2.243 2.307-3.27l.13.271c-.19.764-.43 1.389-.334 2.222 1.288-.374 2.402-.576 3.881-.62l.122.275c-1.301.504-2.599.901-3.648 1.89.331.916.712 1.637 1.329 2.546l.128.281c-1.111-.178-2.128-.577-3.086-.771-.758 1.34-1.058 3.166-1.444 4.911l-.125-.28z" style="fill:url(#u);stroke:none"/></g></g><g clip-path="url(#v)" transform="matrix(1.25 0 0 -1.25 -941.975 280.447)"><g clip-path="url(#w)"><path d="M43.771 52.288s-.837.076-2.213.032c-1.17-.054-2.908-.157-3.752-.406l-.128-.273c1.351-.058 3.193-.41 3.897-1.123 0 0-2.04-1.841-4.063-5.873 0 0 3.665 3.444 5.251 4.298 0 0 .834-2.769 1.413-4.159l.127.272c.162.893.554 3.314 1.237 4.795 0 0 .235.148 1.405.264 1.181.1 2.845.161 6.001-.391l.13.275c-.719.417-3.596 1.647-6.641 2.062h.102c.421 1.225.938 2.146.938 2.146-.64-.084-2.479-.946-3.704-1.919" style="fill:url(#x);stroke:none"/></g></g><g clip-path="url(#y)" transform="matrix(1.25 0 0 -1.25 -941.975 280.447)"><g clip-path="url(#z)"><path d="M51.455 35.282c-.043.544-.082.997-.109 1.598a31.198 31.198 0 0 0-1.887-2.336c-.757-.209-1.621-.197-2.409-.187-.292.005-.574.009-.834.002l-.124-.275a8.43 8.43 0 0 1 2.189-.761c-.615-.556-1.433-.981-2.018-1.371l-.119-.273c1.231.297 2.858.816 4.064 1.537.633-.028 1.226.008 1.655.092 0 0 .123.285.123.277-.075.279-.322.446-.396.839 1.135.883 1.954 1.688 2.9 2.633l.135.272c-.938-.639-2.077-1.525-3.17-2.047" style="fill:url(#A);stroke:none"/></g></g><g clip-path="url(#B)" transform="matrix(3.51663 0 0 -3.51663 -104.61 244.052)"><g style="stroke:#000;stroke-width:.00825336;stroke-miterlimit:4;stroke-opacity:1;stroke-dasharray:none"><g style="stroke:#000;stroke-width:.00825336;stroke-miterlimit:4;stroke-opacity:1;stroke-dasharray:none"><path d="M242.509 572.936h40.511v-40.512h-40.511v40.512z" style="fill:url(#C);stroke:#000;stroke-width:.00825336;stroke-miterlimit:4;stroke-opacity:1;stroke-dasharray:none" transform="matrix(.93865 0 0 .93865 -196.424 -469.868)"/><path d="M245.668 572.376c-.785 0-1.298-.665-1.419-1.593 0 0-1.012-5.319-1.012-16.611 0-11.298 1.012-18.69 1.012-18.69.091-.895.634-1.593 1.419-1.593h35.064c.785 0 1.408.621 1.422 1.593 0 0-.389 8.658-.389 17.114 0 8.457.389 18.187.389 18.187.018.864-.637 1.593-1.422 1.593h-35.064z" style="fill:url(#D);fill-opacity:1;fill-rule:evenodd;stroke:#000;stroke-width:.00825336;stroke-miterlimit:4;stroke-opacity:1;stroke-dasharray:none" transform="matrix(.93865 0 0 .93865 -196.424 -469.868)"/><path d="m265.405 559.423.028-.01-.028.01z" style="fill:url(#E);stroke:#000;stroke-width:.00825336;stroke-miterlimit:4;stroke-opacity:1;stroke-dasharray:none" transform="matrix(.93865 0 0 .93865 -196.424 -469.868)"/><path d="M265.773 568.76c1.171-.49 5.868-3.029 6.445-3.84-2.366-.312-7-1.52-9.496-2.733l-.147-.297c2.752.608 6.601.924 9.255 1.07-.989-1.454-1.646-2.147-3.155-3.793l-.14-.318c2.872 1.726 3.683 1.851 6.33 3.398 1-1.478 1.24-4.887 1.28-7.587.861 1.711 1.908 8.17 1.473 9.336 1.754 1.203 1.993 2.175 1.993 2.175-1.61-.14-2.497-.167-3.366-.44-2.057 1.262-6.775 2.926-10.335 3.328l-.137-.298z" style="fill:url(#F);stroke:#000;stroke-width:.01099975;stroke-miterlimit:4;stroke-opacity:1;stroke-dasharray:none" transform="matrix(.93865 0 0 .93865 -196.424 -469.868)"/><path d="M248.236 548.703c-.232-2.154-.326-3.692-.017-5.41-.872-.243-1.634-.276-2.337-.576l-.133-.294c1.117-.69 2.026-1.216 3.288-1.808.676-1.45 1.375-2.43 2.506-3.543l.137.297c-.204.826-.467 1.504-.367 2.41a15.614 15.614 0 0 1 4.205-.676l.136.298c-1.406.548-2.812.976-3.949 2.049.357.995.767 1.775 1.436 2.76l.14.305c-1.21-.183-2.302-.625-3.347-.829-.826 1.446-1.143 3.43-1.56 5.315l-.138-.298z" style="fill:url(#G);stroke:#000;stroke-width:.01099975;stroke-miterlimit:4;stroke-opacity:1;stroke-dasharray:none" transform="matrix(.93865 0 0 .93865 -196.424 -469.868)"/><path d="M255.406 558.517s-.905.084-2.4.04c-1.266-.058-3.152-.172-4.068-.438l-.133-.296c1.456-.063 3.453-.453 4.218-1.221 0 0-2.123-1.923-4.26-6.07-.054-.105-.091-.189-.147-.298 0 0 3.978 3.733 5.703 4.658 0 0 .9-3.007 1.527-4.51l.137.301c.172.965.604 3.587 1.339 5.192 0 0 .26.158 1.528.28 1.278.116 3.08.182 6.501-.418l.14.296c-.774.454-3.831 1.767-7.091 2.225a15.334 15.334 0 0 0 1.025 2.347c-.699-.096-2.689-1.028-4.019-2.088" style="fill:url(#H);stroke:#000;stroke-width:.01099975;stroke-miterlimit:4;stroke-opacity:1;stroke-dasharray:none" transform="matrix(.93865 0 0 .93865 -196.424 -469.868)"/><path d="M263.736 540.081c-.05.584-.087 1.08-.117 1.738a33.678 33.678 0 0 0-2.043-2.535c-.805-.223-1.725-.213-2.563-.205-.337.004-.661.006-.958-.004l-.135-.299a9.08 9.08 0 0 1 2.37-.818c-.665-.604-1.552-1.066-2.176-1.485l-.14-.296c1.341.316 3.1.884 4.412 1.658.682-.03 1.32.015 1.787.108 0 0 .143.307.143.299-.088.302-.355.486-.435.91 1.23.953 2.118 1.823 3.147 2.857l.144.298c-1.017-.7-2.25-1.66-3.436-2.226" style="fill:url(#I);stroke:#000;stroke-width:.01099975;stroke-miterlimit:4;stroke-opacity:1;stroke-dasharray:none" transform="matrix(.93865 0 0 .93865 -196.424 -469.868)"/></g><g style="stroke:#000;stroke-width:.00825336;stroke-miterlimit:4;stroke-opacity:1;stroke-dasharray:none"><path d="M3.127-2.557C.486-4.11-.32-4.243-3.197-5.96-1.524-4.145-.94-3.374.094-1.854c-2.65-.14-6.498-.459-9.245-1.068C-6.761-1.644-2.016-.223.486.115c-.58.801-5.28 3.346-6.448 3.836 3.72-.29 8.267-1.678 10.472-3.028.867.272 1.768.285 3.383.428C7.483.645 7.463.238 5.88-.812c.438-1.174-.61-7.626-1.473-9.336-.033 2.7-.268 6.108-1.28 7.591" style="fill:#fff;fill-opacity:1;fill-rule:nonzero;stroke:none;stroke-width:.01099975;stroke-miterlimit:4;stroke-opacity:1;stroke-dasharray:none" transform="matrix(.93865 0 0 .93865 58.77 60.57)"/></g><g style="stroke:none;stroke-width:.00825336;stroke-miterlimit:4;stroke-opacity:1;stroke-dasharray:none"><path d="M-1.703-8.337c-1.517.564-2.61 1.218-3.816 2.346.362.993.772 1.77 1.445 2.768a76.136 76.136 0 0 1-3.21-.526c-.864 1.515-1.257 2.977-1.7 5.012-.234-2.156-.324-3.697-.02-5.415-.977-.27-1.664-.508-2.47-.87 1.124-.688 2.036-1.217 3.29-1.803.677-1.45 1.373-2.429 2.507-3.545-.265.951-.335 1.707-.225 2.706 1.403-.409 2.605-.623 4.2-.673" style="fill:#fff;fill-opacity:1;fill-rule:nonzero;stroke:none;stroke-width:.01099975;stroke-miterlimit:4;stroke-opacity:1;stroke-dasharray:none" transform="matrix(.93865 0 0 .93865 45.144 44.266)"/></g><g style="stroke:#000;stroke-width:.00825336;stroke-miterlimit:4;stroke-opacity:1;stroke-dasharray:none"><path d="M-.716-2.978c-.473-.615-1.02-1.76-1.169-2.291 3.913-.53 7.052-2.54 7.052-2.54-3.42.606-5.224.53-6.501.417-1.269-.12-1.53-.27-1.53-.27-.922-2.021-1.476-5.496-1.476-5.496-.623 1.5-1.523 4.509-1.523 4.509-1.727-.924-5.697-4.66-5.697-4.66 2.181 4.373 4.399 6.363 4.399 6.363-.764.773-2.763 1.157-4.225 1.223.76.308 2.707.67 4.204.74 1.498.041 2.404-.042 2.404-.042 1.337 1.054 3.364 1.944 4.062 2.047" style="fill:#fff;fill-opacity:1;fill-rule:nonzero;stroke:none;stroke-width:.01099975;stroke-miterlimit:4;stroke-opacity:1;stroke-dasharray:none" transform="matrix(.93865 0 0 .93865 47.928 59.38)"/></g><g style="stroke:none;stroke-width:.00825336;stroke-miterlimit:4;stroke-opacity:1;stroke-dasharray:none"><path d="M.32-7.66a31.556 31.556 0 0 0-2.052-2.528 12.551 12.551 0 0 0-3.651-.51 9.19 9.19 0 0 1 2.375-.82c-.823-.744-1.517-1.276-2.316-1.78 1.339.314 3.098.883 4.407 1.657.683-.027 1.324.017 1.793.11a9.85 9.85 0 0 0-.297 1.21c1.232.954 2.129 1.819 3.155 2.856C2.642-8.225 1.7-8.795.435-9.391.381-8.811.35-8.316.321-7.66" style="fill:#fff;fill-opacity:1;fill-rule:nonzero;stroke:none;stroke-width:.01099975;stroke-miterlimit:4;stroke-opacity:1;stroke-dasharray:none" transform="matrix(.93865 0 0 .93865 50.852 46.175)"/></g></g><path d="M0 0c-.296.203-.705.454-1.207.454-.569 0-1.116-.389-1.116-2.096 0-1.486.466-2 1.013-2 .592 0 1.048.47 1.31.816V0zm2.242-4.379c-.34-.298-.751-.467-1.16-.467-.432 0-.831.225-.888.899-.49-.5-1.071-.877-1.902-.877-.966 0-1.911.83-1.911 3.116 0 2.344 1.024 3.186 2.138 3.186.514 0 .945-.092 1.481-.342v2.426c.409.088.819.169 1.241.271v-7.292c0-.26.114-.353.273-.353.171 0 .455.115.647.251l.081-.818z" style="fill:#140f14;fill-opacity:1;fill-rule:nonzero;stroke:none" transform="matrix(.83904 0 0 .83904 134.241 40.134)"/><path d="m0 0-.956-2.742-.832.182.615 2.742L0 0z" style="fill:#140f14;fill-opacity:1;fill-rule:nonzero;stroke:none" transform="matrix(.83904 0 0 .83904 138.256 43.111)"/><path d="M0 0v4.212h1.242V.216c0-.838.477-1.019 1.035-1.019.545 0 1.024.181 1.024 1.019v3.996h1.24V0c0-1.421-1.115-1.953-2.264-1.953C1.116-1.953 0-1.421 0 0" style="fill:#140f14;fill-opacity:1;fill-rule:nonzero;stroke:none" transform="matrix(.83904 0 0 .83904 139.04 37.725)"/><path d="M0 0c.514.388 1.116.763 1.981.763 1.083 0 1.764-.593 1.764-1.914v-4.273h-1.24v3.945c0 .738-.387 1.057-.991 1.057-.466 0-.921-.228-1.296-.476v-4.526h-1.243v6.05H0V0z" style="fill:#140f14;fill-opacity:1;fill-rule:nonzero;stroke:none" transform="matrix(.83904 0 0 .83904 144.985 40.734)"/><path d="M0 0c.466.388 1.093.763 1.9.763.685 0 1.127-.229 1.435-.706.614.399 1.207.706 1.934.706 1.083 0 1.697-.593 1.697-1.914v-4.273H5.725v3.945c0 .753-.295 1.079-.91 1.079-.41 0-.888-.227-1.252-.454.021-.125.034-.376.034-.546v-4.024H2.355v3.752c0 .853-.158 1.272-.909 1.272C1.014-.4.592-.614.227-.854v-4.57h-1.24v6.05H0V0z" style="fill:#140f14;fill-opacity:1;fill-rule:nonzero;stroke:none" transform="matrix(.83904 0 0 .83904 152.498 40.734)"/><path d="M0 0c0-1.646.409-2.159 1.227-2.159.821 0 1.22.513 1.22 2.139 0 1.682-.399 2.195-1.22 2.195C.409 2.175 0 1.662 0 0m3.722-.02c0-2.105-.866-3.139-2.495-3.139-1.593 0-2.504.899-2.504 3.159 0 2.221.878 3.165 2.504 3.165 1.698 0 2.495-.899 2.495-3.185" style="fill:#140f14;fill-opacity:1;fill-rule:nonzero;stroke:none" transform="matrix(.83904 0 0 .83904 160.421 38.718)"/><path d="M0 0c.512.388 1.116.763 1.979.763 1.084 0 1.767-.593 1.767-1.914v-4.273H2.504v3.945c0 .738-.386 1.057-.991 1.057-.466 0-.921-.228-1.298-.476v-4.526h-1.239v6.05H0V0z" style="fill:#140f14;fill-opacity:1;fill-rule:nonzero;stroke:none" transform="matrix(.83904 0 0 .83904 165.457 40.734)"/><path d="M0 0c-.296.203-.706.454-1.208.454-.568 0-1.115-.389-1.115-2.096 0-1.486.467-2 1.013-2 .592 0 1.047.47 1.31.816V0zm2.242-4.379c-.341-.298-.75-.467-1.162-.467-.431 0-.831.225-.887.899-.489-.5-1.071-.877-1.902-.877-.966 0-1.911.83-1.911 3.116 0 2.344 1.024 3.186 2.14 3.186.511 0 .944-.092 1.48-.342v2.426c.409.088.819.169 1.241.271v-7.292c0-.26.114-.353.272-.353.172 0 .457.115.649.251l.08-.818z" style="fill:#140f14;fill-opacity:1;fill-rule:nonzero;stroke:none" transform="matrix(.83904 0 0 .83904 172.74 40.134)"/><path d="M0 0c0 1.035-.319 1.399-1.013 1.399S-2.072 1.069-2.128 0H0zm-2.14-.958c.022-1.531.603-1.78 1.479-1.78.661 0 1.23.364 1.583.626l.193-1.082C.569-3.536 0-3.843-.911-3.843c-1.502 0-2.526.886-2.526 3.159 0 2.243.9 3.166 2.447 3.166 1.572 0 2.186-1.024 2.186-2.539v-.901H-2.14z" style="fill:#140f14;fill-opacity:1;fill-rule:nonzero;stroke:none" transform="matrix(.83904 0 0 .83904 178.015 39.292)"/><path d="M0 0c-.307.206-.706.454-1.183.454-.674 0-1.14-.557-1.14-2.048 0-1.621.513-1.963 1.036-1.963.558 0 .991.352 1.287.689V0zm0-4.045c-.421-.341-.923-.673-1.571-.673-1.025 0-2.048.673-2.048 3.139 0 2.344 1.068 3.186 2.185 3.186.603 0 1.115-.274 1.649-.605v.468h1.014v-8.396C.819-7.015.408-7.096 0-7.201v3.156z" style="fill:#140f14;fill-opacity:1;fill-rule:nonzero;stroke:none" transform="matrix(.83904 0 0 .83904 185.088 40.026)"/><path d="M0 0v4.212h1.242V.216c0-.838.479-1.019 1.036-1.019.547 0 1.025.181 1.025 1.019v3.996h1.24V0c0-1.421-1.115-1.953-2.265-1.953C1.116-1.953 0-1.421 0 0" style="fill:#140f14;fill-opacity:1;fill-rule:nonzero;stroke:none" transform="matrix(.83904 0 0 .83904 187.325 37.725)"/><path d="M376.717 42.899h-1.241v6.05h1.241v-6.05zm0 6.858h-1.241v1.295h1.241v-1.295z" style="fill:#140f14;fill-opacity:1;fill-rule:nonzero;stroke:none" transform="matrix(.83904 0 0 .83904 -122.639 .189)"/><path d="M0 0c-.034.593-.285 1.082-.967 1.082-.796 0-1.093-.364-1.093-2.073 0-1.667.478-2.032 1.342-2.032.764 0 1.242.306 1.595.559l.239-1.038C.569-3.842-.023-4.15-.899-4.15c-1.571 0-2.459.864-2.459 3.171 0 2.333.764 3.153 2.435 3.153 1.458 0 2.017-.888 2.039-2.059C.739.078.375.045 0 0" style="fill:#140f14;fill-opacity:1;fill-rule:nonzero;stroke:none" transform="matrix(.83904 0 0 .83904 199.482 39.55)"/><path d="M0 0v-2.938c.455.287.991.582 1.753.582 1.093 0 1.775-.582 1.775-1.902v-4.285H2.289v3.946c0 .738-.377 1.023-1.003 1.023-.455 0-.912-.205-1.286-.411v-4.558h-1.241v8.27L0 0z" style="fill:#140f14;fill-opacity:1;fill-rule:nonzero;stroke:none" transform="matrix(.83904 0 0 .83904 202.465 43.35)"/><path d="M0 0c-1.149 0-1.969-.375-1.969-1.119 0-.493.341-.674.729-.674.511 0 .944.364 1.24.758V0zm0 1.617c0 .615-.364.842-.878.842-.568 0-.978-.352-.989-.979l-1.092.114c.068 1.22 1.014 1.845 2.163 1.845 1.24 0 2.036-.639 2.036-1.73v-3.207c0-.261.125-.341.285-.341.16 0 .444.103.637.239l.092-.817c-.354-.299-.762-.468-1.172-.468-.433 0-.843.239-.9.9-.546-.593-1.207-.9-1.844-.9-.82 0-1.513.511-1.513 1.602C-3.175.263-1.56.832 0 .865v.752z" style="fill:#140f14;fill-opacity:1;fill-rule:nonzero;stroke:none" transform="matrix(.83904 0 0 .83904 209.178 38.488)"/><path d="M0 0c.513.388 1.116.763 1.981.763 1.083 0 1.764-.593 1.764-1.914v-4.273H2.504v3.945c0 .738-.387 1.057-.991 1.057-.466 0-.921-.228-1.297-.476v-4.526h-1.24v6.05H0V0z" style="fill:#140f14;fill-opacity:1;fill-rule:nonzero;stroke:none" transform="matrix(.83904 0 0 .83904 212.68 40.734)"/><path d="M0 0c0-.853.376-1.343.991-1.343.591 0 .945.49.945 1.32 0 .957-.354 1.378-.945 1.378C.376 1.355 0 .899 0 0m.365-3.978c-.365-.17-.82-.502-.82-.866 0-.513.615-.694 1.308-.694.762 0 1.583.296 1.583.785 0 .697-1.138.637-2.071.775m1.49 6.13h2.004l-.046-.979-.978.136c.227-.342.351-.795.351-1.332 0-1.367-.886-2.271-2.195-2.271-.33 0-.547.012-.809.12-.182-.072-.329-.212-.329-.382 0-.913 4.006.215 4.006-2.062 0-1.25-1.57-1.9-3.061-1.9-1.503 0-2.506.547-2.506 1.446 0 .582.525 1.127 1.163 1.388-.353.147-.638.388-.638.809 0 .421.341.847.716 1.087-.5.388-.774.948-.774 1.788 0 1.399.888 2.289 2.242 2.289.319 0 .603-.047.854-.137" style="fill:#140f14;fill-opacity:1;fill-rule:nonzero;stroke:none" transform="matrix(.83904 0 0 .83904 218.027 39.454)"/><path d="M0 0c0 1.035-.319 1.399-1.014 1.399-.694 0-1.057-.33-1.114-1.399H0zm-2.141-.958c.024-1.531.604-1.78 1.481-1.78.66 0 1.229.364 1.582.626l.193-1.082C.569-3.536 0-3.843-.911-3.843c-1.502 0-2.527.886-2.527 3.159 0 2.243.899 3.166 2.447 3.166 1.571 0 2.185-1.024 2.185-2.539v-.901h-3.335z" style="fill:#140f14;fill-opacity:1;fill-rule:nonzero;stroke:none" transform="matrix(.83904 0 0 .83904 224.707 39.292)"/><path d="M0 0v-6.882h2.855v-1.091H-1.23V0H0z" style="fill:#140f14;fill-opacity:1;fill-rule:nonzero;stroke:none" transform="matrix(.83904 0 0 .83904 87.727 42.873)"/><path d="M0 0c-1.149 0-1.969-.374-1.969-1.119 0-.493.341-.674.727-.674.514 0 .946.364 1.242.758V0zm0 1.617c0 .615-.364.842-.877.842-.569 0-.979-.352-.989-.979l-1.093.116c.069 1.218 1.014 1.843 2.162 1.843 1.24 0 2.038-.638 2.038-1.73v-3.207c0-.261.124-.339.286-.339.159 0 .443.101.636.237l.092-.817c-.353-.299-.763-.468-1.175-.468-.431 0-.841.239-.897.9-.547-.593-1.207-.9-1.845-.9-.819 0-1.513.511-1.513 1.602C-3.175.263-1.559.832 0 .867v.75z" style="fill:#140f14;fill-opacity:1;fill-rule:nonzero;stroke:none" transform="matrix(.83904 0 0 .83904 93.784 38.488)"/><path d="M0 0c.341-.237.694-.376 1.081-.376.707 0 1.254.548 1.254 2.195 0 1.607-.525 1.943-1.117 1.943-.489 0-.819-.19-1.218-.429V0zm0 7.27V4.391c.489.295 1.001.524 1.651.524.979 0 1.968-.604 1.968-3.096 0-2.443-1.228-3.229-2.594-3.229-.786 0-1.617.297-2.266.786v7.622L0 7.27z" style="fill:#140f14;fill-opacity:1;fill-rule:nonzero;stroke:none" transform="matrix(.83904 0 0 .83904 99.491 37.25)"/><path d="M0 0c-1.149 0-1.97-.374-1.97-1.119 0-.493.342-.674.729-.674.512 0 .945.364 1.241.758V0zm0 1.617c0 .615-.364.842-.876.842-.57 0-.98-.352-.991-.979l-1.092.116c.069 1.218 1.014 1.843 2.163 1.843 1.239 0 2.037-.638 2.037-1.73v-3.207c0-.261.125-.339.285-.339.16 0 .443.101.636.237l.092-.817c-.353-.299-.762-.468-1.172-.468-.433 0-.842.239-.899.9-.547-.593-1.208-.9-1.845-.9-.82 0-1.513.511-1.513 1.602C-3.175.263-1.559.832 0 .867v.75z" style="fill:#140f14;fill-opacity:1;fill-rule:nonzero;stroke:none" transform="matrix(.83904 0 0 .83904 106.085 38.488)"/><path d="M0 0c.512.388 1.116.763 1.98.763 1.082 0 1.765-.593 1.765-1.914v-4.273H2.504v3.944c0 .739-.387 1.058-.991 1.058-.466 0-.921-.228-1.296-.476v-4.526h-1.241v6.05H0V0z" style="fill:#140f14;fill-opacity:1;fill-rule:nonzero;stroke:none" transform="matrix(.83904 0 0 .83904 109.422 40.734)"/><path d="M0 0c-.308.205-.706.454-1.183.454-.674 0-1.14-.558-1.14-2.048 0-1.622.513-1.964 1.036-1.964.558 0 .99.352 1.287.69V0zm0-4.046c-.421-.341-.923-.673-1.571-.673-1.024 0-2.048.673-2.048 3.139 0 2.344 1.069 3.186 2.185 3.186.602 0 1.115-.274 1.65-.605v.468H1.23v-8.396C.819-7.016.409-7.097 0-7.202v3.156z" style="fill:#140f14;fill-opacity:1;fill-rule:nonzero;stroke:none" transform="matrix(.83904 0 0 .83904 116.608 40.027)"/><path d="M0 0v4.212h1.241V.216c0-.838.478-1.019 1.035-1.019.547 0 1.025.181 1.025 1.019v3.996h1.24V0c0-1.421-1.114-1.953-2.265-1.953C1.116-1.953 0-1.421 0 0" style="fill:#140f14;fill-opacity:1;fill-rule:nonzero;stroke:none" transform="matrix(.83904 0 0 .83904 118.846 37.725)"/><path d="M0 0c0 1.037-.319 1.401-1.014 1.401-.693 0-1.058-.331-1.115-1.401H0zm-2.141-.956c.022-1.531.604-1.78 1.48-1.78.661 0 1.23.364 1.583.626l.192-1.082C.569-3.534 0-3.841-.912-3.841c-1.502 0-2.525.885-2.525 3.159 0 2.243.899 3.166 2.446 3.166 1.571 0 2.186-1.025 2.186-2.54v-.9h-3.336z" style="fill:#140f14;fill-opacity:1;fill-rule:nonzero;stroke:none" transform="matrix(.83904 0 0 .83904 126.491 39.29)"/><path d="M0 0c2.634-.022 3.6-.558 3.6-1.992 0-.396-.122-.748-.354-1.016-.506-.607-1.488-.921-2.743-.842H.44l-.737-1.918H.44c1.454.042 2.718-.417 3.368-1.211.301-.361.451-.797.451-1.24 0-1.499-1.321-2.275-3.926-2.275-.439 0-1.153 0-1.597.015a195.27 195.27 0 0 0-.108 5.527c0 .945.062 3.051.108 4.851C-.962-.04-.465 0 0 0m-4.881 1.379c.082-1.423.165-5.019.165-6.331 0-1.207-.002-5.252-.213-6.997l-.014-.137h6.322c3.105 0 6.391.966 6.391 3.725 0 1.727-1.25 3.004-3.589 3.701 1.735.467 2.891 1.652 2.891 3.008 0 2.252-2.588 3.099-5.019 3.159h-6.97l.036-.128z" style="fill:#140f14;fill-opacity:1;fill-rule:nonzero;stroke:none" transform="translate(91.309 61.059)"/><path d="M0 0h-3.076l.125-3.428c.06-1.694.117-3.437.237-5.128-.2.53-.385.803-1.319 2.163-.004.048-3.2 4.965-4.31 6.362L-8.375 0h-3.568v-.127c.113-1.423.159-5.02.159-6.331 0-1.209 0-5.253-.171-6.998l-.031-.137h3.181v.137c-.181 3.317-.181 6.665-.181 9.913.111-.394.252-.732.752-1.474.041-.087 5.52-8.063 5.785-8.519l.029-.057H.127l-.003.137c-.195 1.745-.212 5.789-.212 6.998 0 1.311.088 4.908.171 6.331L.124 0H0z" style="fill:#140f14;fill-opacity:1;fill-rule:nonzero;stroke:none" transform="translate(113.666 62.566)"/><path d="M0 0c1.773.032 3.01-.326 3.596-1.07.27-.321.42-.743.42-1.226 0-1.968-2.214-2.395-4.063-2.395l-.751.043-.309.032c-.013.454-.013 1.053-.013 1.726 0 .855 0 1.87.04 2.811C-.819-.044-.425 0 0 0m-4.664 1.513c.125-1.422.172-5.019.172-6.33 0-1.209 0-5.253-.187-6.998v-.138h3.784l-.017.138c-.129 1.254-.195 3.648-.208 5.478l.714-.037.536-.012c4.977 0 7.397 1.318 7.397 4.09 0 3.153-3.396 3.877-6.227 3.937h-5.964v-.128z" style="fill:#140f14;fill-opacity:1;fill-rule:nonzero;stroke:none" transform="translate(122.008 60.925)"/><path d="M0 0c1.776.032 3.012-.326 3.608-1.07.272-.321.41-.743.41-1.226 0-1.968-2.211-2.395-4.036-2.395l-.749.043s-.198.018-.315.032c-.021.454-.021 1.057-.021 1.726 0 .864 0 1.87.035 2.811C-.831-.044-.421 0 0 0m-4.657 1.513c.119-1.422.188-5.019.188-6.33 0-1.209-.012-5.253-.209-6.998v-.138h3.787l-.023.138c-.12 1.254-.189 3.648-.189 5.478l.682-.037.548-.012c4.974 0 7.417 1.318 7.417 4.09 0 3.153-3.415 3.877-6.256 3.937h-5.945v-.128z" style="fill:#140f14;fill-opacity:1;fill-rule:nonzero;stroke:none" transform="translate(141.414 60.925)"/><path d="M0 0c.301-.647 1.082-2.454 1.961-4.611-.136-.006-.306-.006-.306-.006L0-4.64s-1.714.023-1.999.029C-1.285-2.887-.576-1.329 0 0m-.921 4.004H-.97l-.027-.069C-1.701 2.001-6.239-7.903-6.958-9.42l-.06-.17h3.223l.027.074c.284.934.665 1.985 1.08 3.107.129 0 2.688.038 2.688.038l2.226-.016s.359-.022.466-.022c.574-1.462 1.013-2.563 1.205-3.123l.037-.058h3.734L1.635 4.004H-.921z" style="fill:#140f14;fill-opacity:1;fill-rule:nonzero;stroke:none" transform="translate(154.94 58.562)"/><path d="M0 0c.108-1.423.163-5.019.163-6.331 0-1.208 0-5.253-.207-6.998v-.137h3.806l-.016.137c-.201 1.757-.215 5.79-.215 6.998 0 .945.029 3.051.123 4.753.289.021.73.065 1.028.065 1.759.033 3.004-.331 3.587-1.071.278-.319.405-.75.405-1.225 0-1.57-1.465-2.366-2.831-2.437-.457-.019-.797.04-.797.04l-.266.046.146-.249c1.352-1.971 3.372-5.385 4.206-6.999l.026-.058h4.065l-.101.184c-.166.228-2.814 4.126-3.939 5.792 0 0-.051.048-.099.101 2.085.625 3.092 1.791 3.092 3.58 0 3.131-3.395 3.875-6.261 3.936H-.011L0 0z" style="fill:#140f14;fill-opacity:1;fill-rule:nonzero;stroke:none" transform="translate(164.125 62.438)"/><path d="M0 0h-3.624l.02-.127c.094-1.423.167-5.02.167-6.331 0-1.203-.018-5.242-.187-6.998l-.014-.137H.119l-.02.137c-.144 1.756-.19 5.795-.19 6.998 0 1.311.091 4.908.19 6.331V0H0z" style="fill:#140f14;fill-opacity:1;fill-rule:nonzero;stroke:none" transform="translate(182.73 62.566)"/><path d="M0 0c2.655-.022 3.62-.558 3.62-1.992 0-.396-.121-.748-.363-1.016-.478-.607-1.501-.921-2.745-.842H.451L-.28-5.768h.731c1.46.042 2.712-.417 3.361-1.211.317-.361.467-.797.467-1.24 0-1.499-1.327-2.275-3.946-2.275-.421 0-1.129 0-1.573.015-.109 2.002-.109 4.711-.109 5.527 0 .945.035 3.051.109 4.851C-.954-.04-.455 0 0 0m-4.879 1.379c.109-1.423.176-5.019.176-6.331 0-1.207 0-5.252-.192-6.997l-.03-.137h6.33c3.096 0 6.391.966 6.391 3.725 0 1.727-1.253 3.004-3.612 3.701 1.738.467 2.908 1.652 2.908 3.008C7.092.6 4.501 1.447 2.09 1.507h-6.985l.016-.128z" style="fill:#140f14;fill-opacity:1;fill-rule:nonzero;stroke:none" transform="translate(191.153 61.059)"/><path d="M0 0c.306-.633 1.08-2.443 1.96-4.604-.133 0-.298-.015-.298-.015L0-4.641s-1.733.037-1.991.037A129.963 129.963 0 0 0 0 0m1.565 3.996H-.981l-.016-.061c-.76-2.058-5.554-12.484-5.957-13.349l-.07-.183h3.239l.02.081c.27.931.647 1.977 1.068 3.121.103 0 2.678.041 2.678.041L2.21-6.39l.473-.005c.586-1.461 1.02-2.572 1.21-3.121l.034-.081h3.748L1.647 3.996h-.082z" style="fill:#140f14;fill-opacity:1;fill-rule:nonzero;stroke:none" transform="translate(206.692 58.57)"/><path d="M0 0c0-2.388 2.391-3.349 4.511-4.227 1.647-.657 3.373-1.349 3.373-2.488 0-.344-.067-.633-.261-.838-.397-.466-1.2-.663-2.473-.593-1.263.051-2.686.449-4.289 1.187l-.626.302v-2.962l.429-.108.248-.043c.79-.196 2.317-.555 3.834-.555 3.991 0 6.374 1.591 6.374 4.224 0 2.471-2.459 3.434-4.631 4.299C4.886-1.153 3.229-.51 3.229.55c0 .305 0 1.197 2.068 1.197 1.524 0 3.005-.619 3.847-.942l.768-.32-.006.509v2.462l-.762.139c-.776.157-2.069.413-3.402.413C2.299 4.008 0 2.382 0 0" style="fill:#140f14;fill-opacity:1;fill-rule:nonzero;stroke:none" transform="translate(215.429 59.05)"/></g><text transform="matrix(1.25 0 0 1.25 -331.304 -41.689)">
                    
                  </text><text transform="matrix(1.25 0 0 1.25 -331.304 -25.124)">
                    
                  </text><text transform="matrix(1.25 0 0 1.25 -228.59 -339.068)">
                    
                  </text></g></g></svg>